<?xml version="1.0" standalone="no"?>
<!DOCTYPE svg PUBLIC "-//W3C//DTD SVG 20010904//EN"
 "http://www.w3.org/TR/2001/REC-SVG-20010904/DTD/svg10.dtd">
<svg version="1.0" xmlns="http://www.w3.org/2000/svg"
 width="800.000000pt" height="800.000000pt" viewBox="0 0 800.000000 800.000000"
 preserveAspectRatio="xMidYMid meet">
<metadata>
Created by potrace 1.14, written by Peter Selinger 2001-2017
</metadata>
<g transform="translate(0.000000,800.000000) scale(0.100000,-0.100000)"
fill="#000000" stroke="none">
<path d="M3920 7330 c-8 -5 -18 -6 -22 -4 -4 3 -8 0 -8 -6 0 -7 -7 -10 -15 -6
-8 3 -15 0 -15 -6 0 -6 -3 -8 -6 -5 -4 4 -19 -2 -34 -13 -16 -11 -33 -20 -39
-20 -6 0 -11 -3 -11 -8 0 -4 -20 -18 -45 -32 -25 -14 -45 -29 -45 -34 0 -5 -3
-6 -7 -3 -3 4 -15 0 -25 -10 -10 -9 -18 -12 -18 -7 0 5 -4 4 -8 -1 -11 -16
-85 -62 -110 -70 -12 -4 -19 -11 -16 -17 4 -7 2 -8 -5 -4 -6 4 -17 3 -24 -2
-7 -6 -28 -12 -47 -15 -19 -4 -51 -9 -70 -13 -19 -3 -47 -7 -62 -8 -16 0 -28
-4 -28 -9 0 -4 -8 -3 -19 2 -10 6 -20 8 -23 6 -2 -3 -29 -7 -59 -10 -79 -8
-122 -14 -157 -25 -18 -5 -32 -7 -32 -5 0 2 -12 -2 -27 -10 -15 -8 -30 -12
-35 -9 -4 3 -8 0 -8 -5 0 -6 -3 -10 -7 -9 -10 3 -101 -41 -123 -59 -8 -6 -32
-26 -54 -43 -21 -16 -36 -30 -32 -30 4 0 1 -7 -7 -15 -9 -8 -23 -38 -33 -67
-9 -29 -29 -65 -43 -79 -28 -30 -121 -84 -121 -72 0 4 -4 3 -8 -3 -10 -16 -88
-54 -96 -47 -3 4 -6 1 -6 -5 0 -6 -18 -16 -40 -22 -21 -6 -46 -17 -54 -26 -8
-8 -18 -14 -22 -13 -11 3 -43 -24 -38 -33 3 -4 0 -8 -6 -8 -6 0 -8 -4 -5 -10
3 -5 2 -10 -3 -10 -5 0 -9 -6 -10 -12 -3 -34 -10 -66 -16 -76 -4 -7 -3 -12 3
-12 6 0 7 -11 3 -27 -9 -36 -9 -55 2 -72 7 -10 5 -12 -4 -6 -9 6 -10 2 -5 -16
18 -56 26 -69 53 -83 43 -22 85 -75 76 -95 -15 -30 -7 -96 16 -146 13 -27 23
-57 23 -65 0 -43 -4 -63 -10 -57 -3 4 -16 -2 -28 -13 -17 -16 -27 -18 -54 -10
-26 7 -113 70 -97 70 3 0 -1 15 -9 34 -8 18 -11 36 -8 40 4 3 1 6 -6 6 -7 0
-10 4 -7 8 3 5 -3 18 -12 28 -10 10 -19 22 -20 27 -2 10 -72 79 -72 72 0 -4
-12 3 -26 14 -15 12 -33 21 -40 21 -8 0 -14 5 -14 10 0 6 -3 9 -7 8 -5 -1 -18
3 -29 10 -12 6 -24 9 -26 6 -3 -2 -11 2 -17 10 -7 8 -19 12 -27 9 -8 -3 -14 0
-14 7 0 7 -7 10 -15 6 -8 -3 -15 -2 -15 3 0 5 -15 12 -32 16 -18 4 -35 9 -38
10 -3 1 -12 4 -20 7 -8 3 -31 11 -50 18 -19 6 -42 13 -50 15 -8 1 -22 5 -30 8
-30 12 -88 19 -195 23 -60 2 -118 6 -127 8 -10 2 -18 1 -18 -2 0 -4 -42 -7
-93 -8 -50 -1 -105 -4 -122 -9 -16 -4 -34 -8 -40 -9 -24 -4 -115 -50 -115 -58
0 -4 -3 -7 -7 -7 -18 3 -36 -2 -30 -7 3 -4 -2 -18 -13 -32 -11 -13 -17 -28
-14 -33 3 -5 1 -9 -4 -9 -6 0 -8 -8 -5 -18 8 -32 -23 -91 -54 -102 -15 -6 -35
-13 -43 -17 -8 -3 -18 -5 -22 -5 -5 1 -8 -3 -8 -8 0 -5 -3 -9 -7 -8 -9 2 -75
-31 -83 -41 -3 -4 -21 -18 -40 -31 -19 -13 -39 -30 -43 -37 -5 -7 -12 -11 -18
-8 -5 4 -9 -1 -9 -9 0 -9 -4 -16 -9 -16 -4 0 -51 -43 -104 -95 -53 -52 -94
-95 -90 -95 3 0 -11 -17 -31 -37 -20 -21 -36 -43 -36 -50 0 -7 -4 -13 -9 -13
-11 0 -63 -119 -56 -130 3 -5 0 -12 -6 -16 -8 -4 -7 -9 2 -15 11 -7 11 -9 1
-9 -7 0 -10 -4 -7 -10 3 -5 1 -10 -6 -10 -7 0 -4 -7 7 -15 13 -10 14 -13 3
-10 -10 4 -16 0 -16 -9 0 -8 3 -13 7 -11 3 2 6 -5 6 -15 0 -11 -6 -16 -16 -13
-8 3 -4 -5 10 -18 17 -15 19 -20 8 -16 -10 4 -18 2 -18 -3 0 -6 6 -10 13 -10
8 0 7 -4 -3 -10 -14 -9 -7 -14 13 -11 4 1 3 -8 -3 -20 -11 -19 -10 -20 12 -14
18 5 20 4 8 -4 -12 -9 -13 -12 -1 -20 10 -6 10 -10 1 -16 -9 -6 -9 -9 1 -16 7
-4 13 -19 14 -32 0 -13 7 -32 15 -42 13 -17 13 -18 0 -10 -13 8 -13 6 -2 -7 8
-9 20 -14 27 -12 17 7 27 32 15 39 -5 3 -7 12 -4 20 4 8 10 12 15 9 5 -3 9 -2
8 3 -4 22 3 34 26 45 13 6 21 16 18 22 -4 6 2 4 12 -4 17 -14 18 -13 12 4 -5
13 -3 17 7 13 11 -4 13 -1 9 10 -13 32 14 3 33 -36 10 -23 23 -41 28 -41 4 0
6 -6 3 -14 -3 -8 1 -20 9 -26 8 -7 14 -19 14 -27 0 -7 7 -16 15 -19 8 -4 15
-12 15 -20 0 -8 5 -14 11 -14 6 0 17 -7 26 -15 8 -8 19 -13 24 -10 5 4 9 2 9
-3 0 -14 68 -13 77 1 4 7 20 12 35 13 15 1 25 -2 23 -6 -3 -5 2 -11 11 -14 8
-3 12 -10 9 -16 -6 -9 8 -14 28 -11 4 0 7 -7 7 -16 0 -9 3 -14 6 -10 3 3 16
-3 28 -15 11 -11 41 -34 66 -51 25 -17 46 -34 48 -39 2 -4 8 -8 13 -8 15 0 58
-39 124 -114 6 -6 11 -18 13 -26 2 -8 9 -18 15 -22 7 -4 8 -8 2 -8 -5 0 -4 -4
3 -8 7 -5 15 -19 18 -33 3 -13 6 -28 7 -34 2 -5 6 -16 10 -22 5 -7 5 -13 0
-13 -9 0 -10 -8 -14 -119 -1 -51 2 -76 9 -79 7 -2 10 -7 7 -12 -17 -27 85 -40
200 -24 22 3 50 6 63 7 12 0 22 6 22 12 0 5 4 4 9 -3 4 -8 11 -13 15 -13 21 3
25 -2 22 -31 -2 -17 1 -42 6 -54 9 -20 16 -22 57 -18 119 11 354 14 366 4 7
-6 11 -24 10 -40 -1 -17 2 -30 7 -30 5 0 7 -4 3 -10 -7 -11 49 -6 85 8 14 5
33 8 43 7 9 -2 17 2 17 8 0 5 3 8 6 5 3 -3 32 2 65 12 32 10 59 16 59 13 0 -3
6 -1 13 5 18 15 71 24 99 17 35 -9 50 -40 55 -119 3 -39 5 -75 4 -81 0 -5 -2
-39 -5 -75 -2 -36 -7 -81 -10 -100 -4 -19 -9 -46 -11 -60 -3 -14 -7 -34 -9
-46 -13 -66 -9 -160 9 -177 8 -8 11 -17 8 -20 -3 -3 1 -13 10 -21 8 -8 17 -12
21 -9 3 4 6 2 6 -4 0 -6 20 -32 43 -57 24 -25 41 -46 38 -46 -3 0 -1 -4 4 -8
25 -18 112 -162 98 -162 -4 0 -8 -24 -7 -54 0 -30 -4 -53 -8 -50 -15 9 5 -61
28 -101 13 -22 24 -36 24 -30 0 5 8 -2 17 -15 9 -14 23 -29 30 -33 7 -4 13
-13 13 -20 0 -7 8 -17 18 -24 15 -9 62 -88 53 -88 -1 0 3 -13 9 -30 14 -34 21
-75 22 -123 1 -17 4 -32 7 -32 3 0 6 -15 7 -33 1 -42 13 -164 20 -202 9 -46
14 -79 16 -92 1 -7 5 -13 10 -13 5 0 7 -4 4 -9 -3 -5 1 -21 9 -37 7 -15 12
-31 9 -36 -3 -4 -1 -8 3 -8 5 0 16 -12 25 -27 23 -38 65 -83 113 -118 45 -34
78 -65 69 -65 -4 0 -2 -6 4 -12 6 -9 6 -21 -1 -38 -26 -61 -8 -162 31 -172 10
-3 34 3 52 12 38 19 90 10 90 -16 0 -8 8 -14 17 -14 9 0 14 -3 10 -6 -3 -3 3
-15 13 -27 21 -21 40 -49 111 -159 24 -38 47 -68 51 -68 4 0 7 -4 5 -8 -1 -5
12 -23 28 -42 48 -53 264 -270 269 -270 3 0 23 -17 44 -37 110 -107 153 -133
207 -126 99 12 129 9 157 -19 37 -36 49 -70 49 -139 1 -66 4 -69 114 -82 50
-6 77 -17 91 -36 15 -20 81 -22 89 -4 2 8 8 12 13 9 4 -2 26 16 47 41 22 25
48 54 58 64 9 11 14 19 10 19 -5 0 -3 4 2 8 6 4 17 20 25 35 8 16 24 40 37 53
l22 24 51 -26 c28 -15 67 -27 86 -28 18 0 34 -4 34 -8 0 -4 12 -3 26 2 14 6
23 7 21 2 -3 -4 9 -6 26 -5 18 1 32 2 32 3 0 2 19 6 60 13 17 3 42 10 58 16
15 6 27 8 27 6 0 -3 17 1 38 9 20 8 46 17 57 21 11 4 27 9 35 11 8 1 29 5 45
9 17 4 36 8 43 8 6 0 12 4 12 8 0 5 6 6 14 3 8 -3 17 0 21 5 3 6 10 9 15 6 5
-3 11 -1 15 5 3 5 15 10 25 10 10 0 25 6 32 13 7 6 20 13 28 15 8 2 28 10 44
18 16 8 33 14 38 14 18 0 138 62 138 72 0 5 5 6 10 3 6 -3 10 -1 10 4 0 6 5
11 10 11 9 0 34 19 94 75 12 11 25 28 29 38 3 9 11 17 17 17 5 0 10 5 10 11 0
6 9 24 21 40 11 16 17 29 12 29 -4 0 -2 4 5 8 7 5 14 18 17 30 2 12 7 28 12
35 8 13 13 31 18 62 1 11 5 27 8 35 4 8 8 46 10 83 3 37 7 70 10 74 4 3 2 14
-4 24 -7 14 -6 19 2 19 8 0 9 4 0 13 -6 8 -8 17 -4 21 4 4 8 31 9 61 2 45 7
116 18 230 1 11 4 25 7 30 9 14 34 118 31 128 -1 4 2 7 7 7 5 0 13 15 17 32
10 43 9 39 21 68 6 14 18 42 26 63 9 20 14 37 11 37 -3 0 1 10 8 23 13 23 16
37 20 75 1 12 5 22 9 22 4 0 7 12 7 28 0 15 1 59 3 97 1 39 0 76 -5 83 -4 6
-4 12 1 12 13 0 4 228 -11 300 -16 73 -31 120 -38 120 -5 0 -7 4 -4 8 3 5 -1
20 -9 35 -7 14 -11 28 -7 31 3 3 0 6 -6 6 -7 0 -11 3 -10 8 1 4 -4 23 -11 42
-8 19 -15 44 -17 55 -3 11 -7 27 -11 35 -3 8 -7 29 -9 45 -7 79 -13 105 -30
141 -10 21 -29 49 -41 62 -13 13 -23 27 -23 32 0 6 -7 10 -16 10 -8 0 -13 4
-9 9 3 5 0 13 -5 16 -11 7 -33 52 -35 70 0 6 -4 16 -9 24 -7 11 -6 12 5 6 11
-7 12 -6 2 6 -23 29 25 60 56 35 16 -12 219 -13 286 -1 22 4 49 8 60 10 11 1
20 3 20 4 0 2 16 4 35 5 19 2 62 8 95 16 33 7 67 14 75 15 8 2 15 4 15 5 0 1
11 4 25 7 31 6 41 8 60 16 54 20 109 34 114 29 3 -3 6 -1 6 4 0 5 9 10 19 11
11 1 38 11 61 22 24 11 47 18 51 15 5 -3 9 0 9 5 0 6 3 11 8 10 16 -2 52 14
52 24 0 6 3 8 6 4 25 -25 192 137 202 197 6 36 7 41 13 51 4 6 5 20 4 33 -1
12 1 22 4 22 4 0 8 12 9 28 5 66 40 132 69 132 7 0 13 3 13 8 0 4 15 14 33 21
31 14 169 100 194 121 7 5 19 10 26 10 8 0 20 7 27 15 7 8 19 15 26 15 8 0 14
5 14 11 0 5 5 7 10 4 6 -3 13 1 16 9 3 9 12 16 20 16 8 0 23 8 33 18 11 9 33
28 49 41 17 13 38 42 47 65 10 22 21 50 26 61 13 30 21 93 23 162 0 35 5 63 9
63 5 0 6 4 3 9 -4 5 -8 47 -11 93 -2 45 -7 97 -11 113 -4 17 -6 38 -6 48 0 9
-2 17 -6 17 -4 0 -14 20 -21 45 -7 25 -17 45 -22 45 -5 0 -9 9 -9 20 0 11 -4
20 -8 20 -5 0 -16 16 -25 35 -9 19 -22 35 -27 35 -6 0 -9 4 -5 9 6 11 -65 87
-110 118 -51 35 -163 93 -180 93 -8 0 -15 4 -15 10 0 5 -3 9 -7 9 -5 -1 -11 0
-15 1 -5 1 -11 3 -15 4 -5 1 -18 7 -30 14 -13 7 -23 9 -23 5 0 -19 -39 54 -50
93 -7 24 -17 44 -22 44 -5 0 -6 5 -3 10 3 6 2 10 -4 10 -5 0 -13 9 -16 20 -3
11 -12 20 -19 20 -8 0 -19 6 -25 14 -13 15 -96 45 -136 48 -14 1 -25 5 -25 8
0 3 -45 5 -99 5 -54 0 -97 3 -95 6 2 4 -7 7 -21 7 -14 0 -22 -4 -19 -9 3 -5
-5 -5 -18 0 -13 4 -28 6 -35 4 -7 -2 -21 1 -32 6 -13 8 -22 8 -26 1 -4 -6 -10
-8 -15 -5 -5 3 -28 8 -52 11 -24 4 -55 12 -69 20 -15 7 -29 11 -32 8 -3 -3
-15 -1 -26 6 -16 8 -21 8 -21 -2 0 -8 -3 -9 -8 -3 -9 13 -42 16 -42 4 0 -6 -9
-5 -20 1 -13 7 -20 7 -20 1 0 -6 -7 -8 -15 -5 -8 4 -15 1 -15 -4 0 -6 -9 -9
-20 -7 -11 2 -22 0 -25 -5 -3 -5 -12 -7 -20 -3 -8 3 -15 1 -15 -4 0 -5 -9 -9
-20 -10 -11 -1 -35 -9 -52 -17 -17 -9 -36 -16 -41 -16 -6 0 -25 -11 -43 -25
-18 -14 -38 -25 -45 -25 -8 0 -7 -5 2 -17 8 -9 9 -14 2 -10 -7 4 -17 -5 -27
-23 -8 -17 -10 -28 -5 -25 13 9 11 -9 -3 -24 -11 -11 -9 -12 10 -6 18 5 22 2
22 -15 0 -12 -4 -18 -10 -15 -5 3 -10 -1 -10 -9 0 -9 -5 -16 -11 -16 -6 0 -8
-7 -5 -17 4 -10 4 -14 1 -11 -4 4 -19 -6 -34 -21 -15 -15 -32 -26 -39 -23 -7
2 -12 -2 -12 -8 0 -7 -13 2 -29 19 -30 32 -51 40 -51 20 0 -8 -6 -7 -17 2 -15
12 -16 12 -10 -3 4 -12 2 -15 -8 -11 -8 3 -13 8 -11 12 6 9 -21 31 -29 23 -4
-4 0 9 8 28 7 19 21 35 29 34 8 -1 15 5 15 12 0 7 -5 10 -11 7 -6 -3 -5 0 2 8
14 16 16 126 2 164 -11 29 -54 75 -70 75 -6 0 -8 5 -5 10 3 6 1 10 -4 10 -16
0 -51 33 -51 47 0 7 -7 13 -15 13 -8 0 -15 4 -15 10 0 5 -10 19 -22 31 -13 12
-16 18 -8 13 8 -4 5 4 -7 20 -12 15 -20 33 -17 40 9 23 11 227 2 232 -4 3 -6
9 -3 13 2 5 -4 16 -15 26 -11 10 -20 25 -20 33 0 9 -3 13 -6 9 -3 -3 -18 5
-32 18 -14 13 -29 22 -34 19 -4 -3 -8 -1 -8 4 0 5 -19 15 -42 22 -24 7 -50 15
-58 17 -8 3 -28 7 -45 9 -16 2 -42 9 -56 15 -14 5 -30 9 -35 7 -5 -1 -19 3
-31 10 -13 7 -23 11 -23 8 0 -3 -16 2 -35 10 -19 8 -37 14 -40 14 -3 0 -6 0
-7 1 -2 0 -10 2 -18 4 -39 10 -66 16 -75 19 -5 2 -23 7 -40 11 -16 4 -32 12
-35 16 -3 5 -16 10 -29 12 -12 2 -27 10 -31 17 -5 8 -12 12 -15 8 -7 -6 -16 0
-78 54 -18 15 -35 28 -39 28 -5 0 -8 8 -8 17 0 9 -2 14 -5 11 -3 -3 -39 27
-79 66 -101 98 -166 157 -166 149 0 -3 -10 5 -22 19 -13 13 -35 29 -50 36 -29
12 -219 19 -236 8 -6 -3 -14 -2 -17 4 -5 8 -11 8 -20 0 -8 -7 -16 -7 -19 -2
-3 6 -20 7 -40 2 -20 -4 -36 -4 -38 1 -2 5 -10 4 -18 -1z m2025 -1362 c5 4 5
2 2 -5 -4 -6 -1 -14 5 -16 8 -3 8 -6 2 -6 -6 -1 -19 9 -30 21 -12 14 -13 18
-3 10 9 -6 20 -8 24 -4z"/>
<path d="M185 4931 c-6 -11 9 -23 19 -14 9 9 7 23 -3 23 -6 0 -12 -4 -16 -9z"/>
</g>
</svg>
